<mxfile host="app.diagrams.net" modified="2023-11-23T01:17:15.307Z" agent="Mozilla/5.0 (Windows NT 10.0; Win64; x64) AppleWebKit/537.36 (KHTML, like Gecko) Chrome/119.0.0.0 Safari/537.36" version="22.1.3" etag="-fSiE2NZQ-tTk44QNftD" type="github">
  <diagram name="페이지-1" id="Kw5O9c1-15vJ9IPV9pW-">
    <mxGraphModel>
      <root>
        <mxCell id="0" />
        <mxCell id="1" parent="0" />
      </root>
    </mxGraphModel>
  </diagram>
</mxfile>
